<svg width="42" height="42" viewBox="0 0 42 42" fill="none" xmlns="http://www.w3.org/2000/svg">
<path d="M26.8322 18.1034H20.9993C20.355 18.1034 19.8328 18.6004 19.8328 19.2136C19.8328 19.8267 20.355 20.3237 20.9993 20.3237H26.8322C27.4764 20.3237 27.9987 19.8267 27.9987 19.2136C27.9987 18.6004 27.4764 18.1034 26.8322 18.1034Z" fill="#6177FF"/>
<path d="M15.1657 20.3237H16.3322C16.9765 20.3237 17.4988 19.8267 17.4988 19.2136C17.4988 18.6004 16.9765 18.1034 16.3322 18.1034H15.1657C14.5214 18.1034 13.9991 18.6004 13.9991 19.2136C13.9991 19.8267 14.5214 20.3237 15.1657 20.3237Z" fill="#6177FF"/>
<path d="M26.8316 22.5434H24.4985C23.8542 22.5434 23.3319 23.0405 23.3319 23.6536C23.3319 24.2668 23.8542 24.7638 24.4985 24.7638H26.8316C27.4759 24.7638 27.9982 24.2668 27.9982 23.6536C27.9982 23.0405 27.4759 22.5434 26.8316 22.5434Z" fill="#6177FF"/>
<path d="M19.8319 22.5434H15.1657C14.5214 22.5434 13.9991 23.0405 13.9991 23.6536C13.9991 24.2668 14.5214 24.7638 15.1657 24.7638H19.8319C20.4762 24.7638 20.9985 24.2668 20.9985 23.6536C20.9985 23.0405 20.4762 22.5434 19.8319 22.5434Z" fill="#6177FF"/>
<path fill-rule="evenodd" clip-rule="evenodd" d="M31.2367 14.0731L31.2325 14.0679C31.2087 14.0408 31.1838 14.014 31.1566 13.9881L24.1572 7.32699C24.13 7.30113 24.1019 7.2774 24.0733 7.25476L24.0679 7.2507C23.8287 7.06305 23.5465 6.98681 23.2734 7.00185H11.6666C11.0223 7.00185 10.5 7.49888 10.5 8.11202V32.5362C10.5 33.1494 11.0223 33.6464 11.6666 33.6464H17.4988V31.426H12.8332V9.2222H22.1657V14.7732C22.1657 15.3863 22.688 15.8833 23.3323 15.8833H29.1651V26.9851H31.4982V14.8292C31.514 14.5693 31.434 14.3008 31.2367 14.0731ZM24.4988 13.663H27.5153L24.4988 10.7922V13.663Z" fill="#6177FF"/>
<path d="M22.9585 31.9196C22.9585 32.4617 22.8286 32.8965 22.5688 33.224C22.3114 33.5493 21.9627 33.7119 21.5229 33.7119C21.1493 33.7119 20.8473 33.5883 20.6172 33.3411V35H19.6294V30.1273H20.5454L20.5796 30.4721C20.8188 30.1989 21.131 30.0623 21.5161 30.0623C21.9718 30.0623 22.3262 30.2227 22.5791 30.5437C22.832 30.8646 22.9585 31.307 22.9585 31.8708V31.9196ZM21.9707 31.8513C21.9707 31.5239 21.9092 31.2712 21.7861 31.0934C21.6654 30.9156 21.4888 30.8267 21.2563 30.8267C20.9465 30.8267 20.7334 30.9394 20.6172 31.165V32.6059C20.738 32.838 20.9533 32.954 21.2632 32.954C21.7349 32.954 21.9707 32.5864 21.9707 31.8513Z" fill="#6177FF"/>
<path d="M23.4899 31.8611C23.4899 31.3124 23.6187 30.8755 23.8762 30.5502C24.1359 30.2249 24.4902 30.0623 24.9391 30.0623C25.2992 30.0623 25.5965 30.1902 25.8312 30.4461V28.6506H26.8224V33.6468H25.9304L25.8825 33.2728C25.6364 33.5655 25.3197 33.7119 24.9323 33.7119C24.4971 33.7119 24.1473 33.5493 23.883 33.224C23.6209 32.8965 23.4899 32.4422 23.4899 31.8611ZM24.4777 31.9294C24.4777 32.259 24.5381 32.5116 24.6589 32.6873C24.7796 32.8629 24.9551 32.9507 25.1852 32.9507C25.4906 32.9507 25.7059 32.8282 25.8312 32.5832V31.1942C25.7082 30.9492 25.4951 30.8267 25.1921 30.8267C24.7158 30.8267 24.4777 31.1942 24.4777 31.9294Z" fill="#6177FF"/>
<path d="M27.9281 33.6468V30.8169H27.3778V30.1273H27.9281V29.8281C27.9281 29.4334 28.0466 29.1276 28.2836 28.9108C28.5228 28.6918 28.8566 28.5823 29.285 28.5823C29.4217 28.5823 29.5892 28.6039 29.7875 28.6473L29.7772 29.3759C29.6952 29.3564 29.5949 29.3467 29.4764 29.3467C29.105 29.3467 28.9193 29.5125 28.9193 29.8443V30.1273H29.6542V30.8169H28.9193V33.6468H27.9281Z" fill="#6177FF"/>
</svg>
