<svg width="40" height="40" viewBox="0 0 40 40" fill="none" xmlns="http://www.w3.org/2000/svg">
<path d="M25.5545 17.7526H19.9993C19.3858 17.7526 18.8883 18.2487 18.8883 18.8608C18.8883 19.4729 19.3858 19.9691 19.9993 19.9691H25.5545C26.168 19.9691 26.6655 19.4729 26.6655 18.8608C26.6655 18.2487 26.168 17.7526 25.5545 17.7526Z" fill="#6177FF"/>
<path d="M14.4435 19.9691H15.5545C16.1681 19.9691 16.6655 19.473 16.6655 18.8609C16.6655 18.2488 16.1681 17.7526 15.5545 17.7526H14.4435C13.8299 17.7526 13.3325 18.2488 13.3325 18.8609C13.3325 19.473 13.8299 19.9691 14.4435 19.9691Z" fill="#6177FF"/>
<path d="M25.5539 22.1851H23.3319C22.7183 22.1851 22.2209 22.6813 22.2209 23.2934C22.2209 23.9055 22.7183 24.4017 23.3319 24.4017H25.5539C26.1675 24.4017 26.6649 23.9055 26.6649 23.2934C26.6649 22.6813 26.1675 22.1851 25.5539 22.1851Z" fill="#6177FF"/>
<path d="M18.8876 22.1851H14.4435C13.8299 22.1851 13.3325 22.6813 13.3325 23.2934C13.3325 23.9055 13.8299 24.4017 14.4435 24.4017H18.8876C19.5012 24.4017 19.9986 23.9055 19.9986 23.2934C19.9986 22.6813 19.5012 22.1851 18.8876 22.1851Z" fill="#6177FF"/>
<path fill-rule="evenodd" clip-rule="evenodd" d="M29.7493 13.7291L29.7452 13.7239C29.7226 13.6968 29.6988 13.6701 29.6729 13.6443L23.0068 6.99441C22.9809 6.96859 22.9542 6.9449 22.927 6.9223L22.9218 6.91825C22.694 6.73091 22.4253 6.6548 22.1652 6.66981H11.111C10.4974 6.66981 10 7.16601 10 7.77811V32.161C10 32.7731 10.4974 33.2692 11.111 33.2692L18.3333 33.2697V31.0527H12.2221V8.8864H21.1102V14.428C21.1102 15.0401 21.6076 15.5363 22.2212 15.5363H27.7763V26.6201H29.9983V14.4839C30.0134 14.2245 29.9371 13.9564 29.7493 13.7291ZM23.3322 13.3197H26.205L23.3322 10.4538V13.3197Z" fill="#6177FF"/>
<path d="M22.3405 30.6361C22.2125 30.6188 22.0996 30.6102 22.002 30.6102C21.646 30.6102 21.4128 30.7303 21.3021 30.9706V33.2697H20.3613V29.7561H21.25L21.276 30.175C21.4648 29.8525 21.7263 29.6912 22.0605 29.6912C22.1647 29.6912 22.2624 29.7053 22.3535 29.7334L22.3405 30.6361Z" fill="#6177FF"/>
<path d="M24.8062 33.2697C24.7628 33.1853 24.7314 33.0803 24.7118 32.9547C24.5782 33.1033 24.421 33.2083 24.2403 33.2697C24.113 33.313 23.9739 33.3346 23.8232 33.3346C23.6623 33.3346 23.5142 33.313 23.3787 33.2697C23.2237 33.2201 23.0854 33.1422 22.9638 33.0359C22.7381 32.8367 22.6253 32.5856 22.6253 32.2825C22.6253 31.9102 22.7631 31.6244 23.0387 31.4252C23.3164 31.2261 23.7168 31.1254 24.2398 31.1232H24.6728V30.9219C24.6728 30.7595 24.6305 30.6296 24.5458 30.5322C24.4634 30.4348 24.3321 30.3861 24.152 30.3861C23.9935 30.3861 23.8687 30.424 23.7776 30.4998C23.6886 30.5755 23.6441 30.6794 23.6441 30.8115H22.7034C22.7034 30.608 22.7663 30.4197 22.8922 30.2465C23.0181 30.0733 23.196 29.938 23.426 29.8406C23.6561 29.741 23.9143 29.6912 24.2008 29.6912C24.6348 29.6912 24.9788 29.8005 25.2327 30.0192C25.4888 30.2356 25.6168 30.5409 25.6168 30.9349V32.4579C25.619 32.7913 25.6656 33.0435 25.7568 33.2145V33.2697H24.8062ZM24.0283 32.617C24.1671 32.617 24.2952 32.5867 24.4124 32.5261C24.5296 32.4633 24.6164 32.3799 24.6728 32.276V31.672H24.3212C23.8503 31.672 23.5997 31.8344 23.5693 32.1591L23.566 32.2143C23.566 32.3312 23.6072 32.4276 23.6897 32.5033C23.7722 32.5791 23.885 32.617 24.0283 32.617Z" fill="#6177FF"/>
<path d="M28.3853 30.6361C28.2572 30.6188 28.1444 30.6102 28.0467 30.6102C27.6908 30.6102 27.4576 30.7303 27.3469 30.9706V33.2697H26.4061V29.7561H27.2948L27.3208 30.175C27.5096 29.8525 27.7711 29.6912 28.1053 29.6912C28.2095 29.6912 28.3072 29.7053 28.3983 29.7334L28.3853 30.6361Z" fill="#6177FF"/>
<path fill-rule="evenodd" clip-rule="evenodd" d="M27.3469 33.2697V30.9706C27.4576 30.7303 27.6908 30.6102 28.0467 30.6102C28.1444 30.6102 28.2572 30.6188 28.3853 30.6361L28.3983 29.7334C28.3072 29.7053 28.2095 29.6912 28.1053 29.6912C27.7711 29.6912 27.5096 29.8525 27.3208 30.175L27.2948 29.7561H26.4061V33.2697H27.3469ZM25.7568 33.2697V33.2145C25.6656 33.0435 25.619 32.7913 25.6168 32.4579V30.9349C25.6168 30.5409 25.4888 30.2356 25.2327 30.0192C24.9788 29.8005 24.6348 29.6912 24.2008 29.6912C23.9143 29.6912 23.6561 29.741 23.426 29.8406C23.196 29.938 23.0181 30.0733 22.8922 30.2465C22.7663 30.4197 22.7034 30.608 22.7034 30.8115H23.6441C23.6441 30.6794 23.6886 30.5755 23.7776 30.4998C23.8687 30.424 23.9935 30.3861 24.152 30.3861C24.3321 30.3861 24.4634 30.4348 24.5458 30.5322C24.6305 30.6296 24.6728 30.7595 24.6728 30.9219V31.1232H24.2398C23.7168 31.1254 23.3164 31.2261 23.0387 31.4252C22.7631 31.6244 22.6253 31.9102 22.6253 32.2825C22.6253 32.5856 22.7381 32.8367 22.9638 33.0359C23.0854 33.1422 23.2237 33.2201 23.3787 33.2697H24.2403C24.421 33.2083 24.5782 33.1033 24.7118 32.9547C24.7314 33.0803 24.7628 33.1853 24.8062 33.2697H25.7568ZM21.3021 33.2697V30.9706C21.4128 30.7303 21.646 30.6102 22.002 30.6102C22.0996 30.6102 22.2125 30.6188 22.3405 30.6361L22.3535 29.7334C22.2624 29.7053 22.1647 29.6912 22.0605 29.6912C21.7263 29.6912 21.4648 29.8525 21.276 30.175L21.25 29.7561H20.3613V33.2697H21.3021ZM24.0283 32.617C24.1671 32.617 24.2952 32.5867 24.4124 32.5261C24.5296 32.4633 24.6164 32.3799 24.6728 32.276V31.672H24.3212C23.8503 31.672 23.5997 31.8344 23.5693 32.1591L23.566 32.2143C23.566 32.3312 23.6072 32.4276 23.6897 32.5033C23.7722 32.5791 23.885 32.617 24.0283 32.617Z" fill="#6177FF"/>
</svg>
