<svg width="40" height="40" viewBox="0 0 40 40" fill="none" xmlns="http://www.w3.org/2000/svg">
<path fill-rule="evenodd" clip-rule="evenodd" d="M30.4882 13.512L30.4924 13.5171C30.6873 13.7421 30.7664 14.0075 30.7507 14.2643V26.277H28.4452V15.306H22.6811C22.0444 15.306 21.5283 14.8148 21.5283 14.2089V8.72335H12.3057V30.6656H16.9163V32.8598H11.1528C10.5161 32.8598 10 32.3686 10 31.7627V7.62626C10 7.02035 10.5161 6.52917 11.1528 6.52917H22.6229C22.8928 6.51431 23.1716 6.58965 23.408 6.77509L23.4134 6.7791C23.4416 6.80148 23.4694 6.82493 23.4962 6.85049L30.4132 13.4331C30.44 13.4587 30.4647 13.4851 30.4882 13.512ZM26.8148 13.1118H23.8339V10.2749L26.8148 13.1118ZM14.6107 19.6941H15.7635C16.4002 19.6941 16.9163 19.2029 16.9163 18.597C16.9163 17.9911 16.4002 17.4999 15.7635 17.4999H14.6107C13.974 17.4999 13.4579 17.9911 13.4579 18.597C13.4579 19.2029 13.974 19.6941 14.6107 19.6941ZM26.1397 17.4999H20.3756C19.7389 17.4999 19.2228 17.9911 19.2228 18.597C19.2228 19.2029 19.7389 19.6941 20.3756 19.6941H26.1397C26.7764 19.6941 27.2925 19.2029 27.2925 18.597C27.2925 17.9911 26.7764 17.4999 26.1397 17.4999ZM23.8335 21.8876H26.1392C26.7759 21.8876 27.292 22.3788 27.292 22.9847C27.292 23.5906 26.7759 24.0818 26.1392 24.0818H23.8335C23.1968 24.0818 22.6807 23.5906 22.6807 22.9847C22.6807 22.3788 23.1968 21.8876 23.8335 21.8876ZM19.222 21.8876H14.6107C13.974 21.8876 13.4579 22.3788 13.4579 22.9847C13.4579 23.5906 13.974 24.0818 14.6107 24.0818H19.222C19.8587 24.0818 20.3748 23.5906 20.3748 22.9847C20.3748 22.3788 19.8587 21.8876 19.222 21.8876ZM26.8642 33.266H26.2173V28.1446H26.8642V33.266ZM19.1294 32.8526C19.4511 33.1727 19.8684 33.3327 20.3813 33.3327C21.0153 33.3327 21.4909 33.1004 21.8079 32.6358L21.4128 32.3424C21.2939 32.4891 21.1552 32.6069 20.9967 32.6959C20.8382 32.7848 20.6447 32.8292 20.4162 32.8292C20.0945 32.8292 19.8288 32.7203 19.619 32.5025C19.4115 32.2824 19.3031 31.9946 19.2938 31.6389H21.8569V31.3822C21.8569 30.8064 21.7205 30.3641 21.4478 30.0551C21.175 29.7461 20.7927 29.5916 20.3008 29.5916C20.0001 29.5916 19.7204 29.6717 19.4616 29.8317C19.2052 29.9895 19.0047 30.2096 18.8602 30.4919C18.718 30.772 18.6469 31.091 18.6469 31.4488V31.5622C18.6469 32.1001 18.8077 32.5303 19.1294 32.8526ZM19.6435 30.3719C19.8206 30.1896 20.0398 30.0985 20.3008 30.0985C20.5713 30.0985 20.7857 30.1852 20.9442 30.3585C21.1028 30.5297 21.1913 30.772 21.21 31.0854V31.1321H19.3148C19.3567 30.8053 19.4663 30.5519 19.6435 30.3719ZM24.7172 29.6583L23.878 30.9754L23.0493 29.6583H22.301L23.5388 31.4422L22.2625 33.266H23.0143L23.8885 31.9156L24.7627 33.266H25.511L24.2347 31.4422L25.4725 29.6583H24.7172ZM29.9063 31.9223C30.0392 32.0134 30.1057 32.1424 30.1057 32.3091C30.1057 32.4669 30.0311 32.5936 29.8819 32.6892C29.735 32.7826 29.5392 32.8292 29.2944 32.8292C29.0287 32.8292 28.8142 32.7692 28.651 32.6492C28.4902 32.5269 28.4039 32.3624 28.3923 32.1557H27.7454C27.7454 32.3691 27.8106 32.568 27.9412 32.7525C28.0741 32.9348 28.2571 33.0771 28.4902 33.1793C28.7233 33.2816 28.9914 33.3327 29.2944 33.3327C29.7257 33.3327 30.0765 33.236 30.3469 33.0426C30.6173 32.847 30.7525 32.5881 30.7525 32.2657C30.7525 32.0724 30.7036 31.909 30.6057 31.7756C30.5101 31.64 30.3621 31.5244 30.1616 31.4288C29.9611 31.3333 29.6989 31.251 29.3748 31.1821C29.0531 31.1132 28.8305 31.0409 28.707 30.9654C28.5834 30.8898 28.5216 30.7775 28.5216 30.6286C28.5216 30.4708 28.5881 30.343 28.721 30.2452C28.8538 30.1474 29.038 30.0985 29.2734 30.0985C29.5019 30.0985 29.6907 30.1596 29.8399 30.2818C29.9914 30.4041 30.0672 30.5497 30.0672 30.7186H30.7176C30.7176 30.3897 30.5835 30.1196 30.3155 29.9084C30.0497 29.6972 29.7024 29.5916 29.2734 29.5916C28.8655 29.5916 28.5298 29.6939 28.2664 29.8984C28.0053 30.1029 27.8747 30.353 27.8747 30.6486C27.8747 30.8264 27.9202 30.9798 28.0111 31.1087C28.1044 31.2377 28.2466 31.3488 28.4377 31.4422C28.6312 31.5355 28.8911 31.6156 29.2175 31.6822C29.5462 31.7489 29.7758 31.8289 29.9063 31.9223Z" fill="#349C6A"/>
</svg>
