<svg width="40" height="40" viewBox="0 0 40 40" fill="none" xmlns="http://www.w3.org/2000/svg">
<path d="M25.5545 17.2426H19.9993C19.3858 17.2426 18.8883 17.716 18.8883 18.2999C18.8883 18.8839 19.3858 19.3572 19.9993 19.3572H25.5545C26.168 19.3572 26.6655 18.8839 26.6655 18.2999C26.6655 17.716 26.168 17.2426 25.5545 17.2426Z" fill="#6177FF"/>
<path d="M14.4435 19.3572H15.5545C16.1681 19.3572 16.6655 18.8839 16.6655 18.2999C16.6655 17.716 16.1681 17.2426 15.5545 17.2426H14.4435C13.8299 17.2426 13.3325 17.716 13.3325 18.2999C13.3325 18.8839 13.8299 19.3572 14.4435 19.3572Z" fill="#6177FF"/>
<path d="M25.5539 21.4713H23.3319C22.7183 21.4713 22.2209 21.9446 22.2209 22.5286C22.2209 23.1125 22.7183 23.5859 23.3319 23.5859H25.5539C26.1675 23.5859 26.6649 23.1125 26.6649 22.5286C26.6649 21.9446 26.1675 21.4713 25.5539 21.4713Z" fill="#6177FF"/>
<path d="M18.8876 21.4713H14.4435C13.8299 21.4713 13.3325 21.9446 13.3325 22.5286C13.3325 23.1125 13.8299 23.5859 14.4435 23.5859H18.8876C19.5012 23.5859 19.9986 23.1125 19.9986 22.5286C19.9986 21.9446 19.5012 21.4713 18.8876 21.4713Z" fill="#6177FF"/>
<path fill-rule="evenodd" clip-rule="evenodd" d="M29.7493 13.4042L29.7452 13.3993C29.7226 13.3735 29.6988 13.348 29.6729 13.3233L23.0068 6.97939C22.9809 6.95476 22.9542 6.93216 22.927 6.9106L22.9218 6.90673C22.694 6.72801 22.4253 6.6554 22.1652 6.66973H11.111C10.4974 6.66973 10 7.1431 10 7.72704V30.9882C10 31.5721 10.4974 32.0455 11.111 32.0455H18.3333V29.9309H12.2221V8.78435H21.1102V14.071C21.1102 14.6549 21.6076 15.1283 22.2212 15.1283H27.7763V25.7014H30L29.9983 14.1243C30.0134 13.8769 29.9371 13.6211 29.7493 13.4042ZM23.3322 13.0137H26.205L23.3322 10.2796V13.0137Z" fill="#6177FF"/>
<path d="M21.4421 31.3241H23.1641V32.0459H20.2409V31.5007L21.8978 29.4189H20.2897V28.694H23.112V29.2237L21.4421 31.3241Z" fill="#6177FF"/>
<path d="M24.8128 32.0459H23.8687V28.694H24.8128V32.0459ZM23.8134 27.8266C23.8134 27.6923 23.8601 27.5818 23.9534 27.4951C24.0489 27.4084 24.178 27.365 24.3408 27.365C24.5013 27.365 24.6294 27.4084 24.7249 27.4951C24.8204 27.5818 24.8681 27.6923 24.8681 27.8266C24.8681 27.9629 24.8193 28.0744 24.7216 28.1612C24.6261 28.2479 24.4992 28.2913 24.3408 28.2913C24.1823 28.2913 24.0543 28.2479 23.9566 28.1612C23.8612 28.0744 23.8134 27.9629 23.8134 27.8266Z" fill="#6177FF"/>
<path d="M28.828 30.4009C28.828 30.9172 28.7043 31.3313 28.4569 31.6432C28.3013 31.8398 28.1107 31.974 27.8851 32.0458C27.7553 32.0872 27.6138 32.1079 27.4608 32.1079C27.3116 32.1079 27.1744 32.0872 27.0492 32.0458C26.8758 31.9885 26.7255 31.8914 26.5982 31.7547V32.0458V33.3346H25.6574V32.0458V28.694H26.5298L26.5624 29.0224C26.7902 28.7621 27.0875 28.632 27.4543 28.632C27.8883 28.632 28.2258 28.7849 28.4667 29.0905C28.7076 29.3962 28.828 29.8175 28.828 30.3545V30.4009ZM27.8872 30.3359C27.8872 30.024 27.8286 29.7834 27.7115 29.6141C27.5964 29.4447 27.4283 29.36 27.2069 29.36C26.9118 29.36 26.7089 29.4674 26.5982 29.6822V31.0546C26.7132 31.2756 26.9183 31.3861 27.2134 31.3861C27.6626 31.3861 27.8872 31.036 27.8872 30.3359Z" fill="#6177FF"/>
<path fill-rule="evenodd" clip-rule="evenodd" d="M20.2409 32.0459H23.1641V31.3241H21.4421L23.112 29.2237V28.694H20.2897V29.4189H21.8978L20.2409 31.5007V32.0459ZM24.8128 32.0459V28.694H23.8687V32.0459H24.8128ZM27.0492 32.0458L27.8851 32.0458C28.1107 31.974 28.3013 31.8398 28.4569 31.6432C28.7043 31.3313 28.828 30.9172 28.828 30.4009V30.3545C28.828 29.8175 28.7076 29.3962 28.4667 29.0905C28.2258 28.7849 27.8883 28.632 27.4543 28.632C27.0875 28.632 26.7902 28.7621 26.5624 29.0224L26.5298 28.694H25.6574V32.0458L26.5982 32.0458V31.7547C26.7255 31.8914 26.8758 31.9885 27.0492 32.0458ZM23.8134 27.8266C23.8134 27.6923 23.8601 27.5818 23.9534 27.4951C24.0489 27.4084 24.178 27.365 24.3408 27.365C24.5013 27.365 24.6294 27.4084 24.7249 27.4951C24.8204 27.5818 24.8681 27.6923 24.8681 27.8266C24.8681 27.9629 24.8193 28.0744 24.7216 28.1612C24.6261 28.2479 24.4992 28.2913 24.3408 28.2913C24.1823 28.2913 24.0543 28.2479 23.9566 28.1612C23.8612 28.0744 23.8134 27.9629 23.8134 27.8266ZM27.8872 30.3359C27.8872 30.024 27.8286 29.7834 27.7115 29.6141C27.5964 29.4447 27.4283 29.36 27.2069 29.36C26.9118 29.36 26.7089 29.4674 26.5982 29.6822V31.0546C26.7132 31.2756 26.9183 31.3861 27.2134 31.3861C27.6626 31.3861 27.8872 31.036 27.8872 30.3359Z" fill="#6177FF"/>
</svg>
