<svg width="40" height="40" viewBox="0 0 40 40" fill="none" xmlns="http://www.w3.org/2000/svg">
<path d="M25.5545 17.7526H19.9993C19.3858 17.7526 18.8883 18.2487 18.8883 18.8608C18.8883 19.4729 19.3858 19.9691 19.9993 19.9691H25.5545C26.168 19.9691 26.6655 19.4729 26.6655 18.8608C26.6655 18.2487 26.168 17.7526 25.5545 17.7526Z" fill="#6177FF"/>
<path d="M14.4435 19.9691H15.5545C16.1681 19.9691 16.6655 19.473 16.6655 18.8609C16.6655 18.2488 16.1681 17.7526 15.5545 17.7526H14.4435C13.8299 17.7526 13.3325 18.2488 13.3325 18.8609C13.3325 19.473 13.8299 19.9691 14.4435 19.9691Z" fill="#6177FF"/>
<path d="M25.5539 22.1851H23.3319C22.7183 22.1851 22.2209 22.6813 22.2209 23.2934C22.2209 23.9055 22.7183 24.4017 23.3319 24.4017H25.5539C26.1675 24.4017 26.6649 23.9055 26.6649 23.2934C26.6649 22.6813 26.1675 22.1851 25.5539 22.1851Z" fill="#6177FF"/>
<path d="M18.8876 22.1851H14.4435C13.8299 22.1851 13.3325 22.6813 13.3325 23.2934C13.3325 23.9055 13.8299 24.4017 14.4435 24.4017H18.8876C19.5012 24.4017 19.9986 23.9055 19.9986 23.2934C19.9986 22.6813 19.5012 22.1851 18.8876 22.1851Z" fill="#6177FF"/>
<path fill-rule="evenodd" clip-rule="evenodd" d="M29.7493 13.7291L29.7452 13.7239C29.7226 13.6968 29.6988 13.6701 29.6729 13.6443L23.0068 6.99441C22.9809 6.96859 22.9542 6.9449 22.927 6.9223L22.9218 6.91825C22.694 6.73091 22.4253 6.6548 22.1652 6.66981H11.111C10.4974 6.66981 10 7.16601 10 7.77811V32.161C10 32.7731 10.4974 33.2692 11.111 33.2692H13.3325V31.0527H12.2221V8.8864H21.1102V14.428C21.1102 15.0401 21.6076 15.5363 22.2212 15.5363H27.7763V28.2819H29.9983V14.4839C30.0134 14.2245 29.9371 13.9564 29.7493 13.7291ZM23.3322 13.3197H26.205L23.3322 10.4538V13.3197Z" fill="#6177FF"/>
<path d="M15.2148 31.4869C15.2148 30.9392 15.3375 30.503 15.5827 30.1783C15.8301 29.8535 16.1675 29.6912 16.5951 29.6912C16.9379 29.6912 17.2211 29.8189 17.4447 30.0744V28.2819H18.3887V33.2697H17.5391L17.4935 32.8962C17.3493 33.076 17.1797 33.2005 16.9846 33.2697C16.8626 33.313 16.7305 33.3346 16.5885 33.3346C16.4372 33.3346 16.2967 33.313 16.167 33.2697C15.9416 33.1944 15.749 33.0537 15.5892 32.8475C15.3396 32.5206 15.2148 32.0671 15.2148 31.4869ZM16.1556 31.5551C16.1556 31.8842 16.2131 32.1364 16.3281 32.3117C16.4431 32.4871 16.6102 32.5748 16.8294 32.5748C17.1202 32.5748 17.3253 32.4525 17.4447 32.2078V30.8212C17.3275 30.5766 17.1246 30.4543 16.8359 30.4543C16.3824 30.4543 16.1556 30.8212 16.1556 31.5551Z" fill="#6177FF"/>
<path d="M19.038 31.4804C19.038 31.1319 19.1053 30.8212 19.2398 30.5485C19.3744 30.2757 19.5675 30.0646 19.8193 29.9152C20.0732 29.7659 20.3672 29.6912 20.7014 29.6912C21.1767 29.6912 21.5641 29.8362 21.8635 30.1263C22.1652 30.4164 22.3334 30.8104 22.3681 31.3083L22.3746 31.5486C22.3746 32.0877 22.2238 32.5206 21.9221 32.8475C21.7306 33.0537 21.4976 33.1944 21.223 33.2697C21.0651 33.313 20.8934 33.3346 20.7079 33.3346C20.5225 33.3346 20.3507 33.313 20.1925 33.2697C19.9174 33.1944 19.6834 33.0537 19.4905 32.8475C19.1888 32.5228 19.038 32.0812 19.038 31.5227V31.4804ZM19.9788 31.5486C19.9788 31.882 20.0417 32.1375 20.1676 32.315C20.2934 32.4903 20.4736 32.578 20.7079 32.578C20.9358 32.578 21.1138 32.4914 21.2418 32.3182C21.3698 32.1429 21.4339 31.8636 21.4339 31.4804C21.4339 31.1535 21.3698 30.9003 21.2418 30.7206C21.1138 30.5409 20.9336 30.451 20.7014 30.451C20.4714 30.451 20.2934 30.5409 20.1676 30.7206C20.0417 30.8981 19.9788 31.1741 19.9788 31.5486Z" fill="#6177FF"/>
<path d="M24.4855 32.578C24.6592 32.578 24.8002 32.5304 24.9087 32.4351C25.0172 32.3399 25.0737 32.2132 25.078 32.0552H25.9602C25.958 32.2933 25.8929 32.512 25.7648 32.7112C25.6368 32.9082 25.461 33.0619 25.2375 33.1723C25.1561 33.2121 25.0716 33.2445 24.9838 33.2697C24.8327 33.313 24.672 33.3346 24.5018 33.3346C24.3161 33.3346 24.1449 33.313 23.9881 33.2697C23.7198 33.1956 23.494 33.0581 23.3104 32.8573C23.0196 32.5369 22.8742 32.0953 22.8742 31.5324V31.4707C22.8742 30.9295 23.0185 30.4976 23.3072 30.175C23.5958 29.8525 23.9918 29.6912 24.4953 29.6912C24.9358 29.6912 25.2885 29.8167 25.5533 30.0679C25.8202 30.3168 25.9558 30.6491 25.9602 31.0648H25.078C25.0737 30.8829 25.0172 30.7357 24.9087 30.6232C24.8002 30.5084 24.657 30.451 24.479 30.451C24.2599 30.451 24.0938 30.5311 23.981 30.6913C23.8703 30.8494 23.815 31.107 23.815 31.4642V31.5616C23.815 31.9231 23.8703 32.1829 23.981 32.341C24.0917 32.499 24.2599 32.578 24.4855 32.578Z" fill="#6177FF"/>
<path d="M27.9051 30.805L28.4975 29.7561H29.5034L28.5008 31.4772L29.5457 33.2697H28.5366L27.9083 32.1656L27.2833 33.2697H26.271L27.3159 31.4772L26.3165 29.7561H27.3256L27.9051 30.805Z" fill="#6177FF"/>
<path fill-rule="evenodd" clip-rule="evenodd" d="M26.271 33.2697H27.2833L27.9083 32.1656L28.5366 33.2697H29.5457L28.5008 31.4772L29.5034 29.7561H28.4975L27.9051 30.805L27.3256 29.7561H26.3165L27.3159 31.4772L26.271 33.2697ZM24.9838 33.2697C25.0716 33.2445 25.1561 33.2121 25.2375 33.1723C25.461 33.0619 25.6368 32.9082 25.7648 32.7112C25.8929 32.512 25.958 32.2933 25.9602 32.0552H25.078C25.0737 32.2132 25.0172 32.3399 24.9087 32.4351C24.8002 32.5304 24.6592 32.578 24.4855 32.578C24.2599 32.578 24.0917 32.499 23.981 32.341C23.8703 32.1829 23.815 31.9231 23.815 31.5616V31.4642C23.815 31.107 23.8703 30.8494 23.981 30.6913C24.0938 30.5311 24.2599 30.451 24.479 30.451C24.657 30.451 24.8002 30.5084 24.9087 30.6232C25.0172 30.7357 25.0737 30.8829 25.078 31.0648H25.9602C25.9558 30.6491 25.8202 30.3168 25.5533 30.0679C25.2885 29.8167 24.9358 29.6912 24.4953 29.6912C23.9918 29.6912 23.5958 29.8525 23.3072 30.175C23.0185 30.4976 22.8742 30.9295 22.8742 31.4707V31.5324C22.8742 32.0953 23.0196 32.5369 23.3104 32.8573C23.494 33.0581 23.7198 33.1956 23.9881 33.2697H24.9838ZM21.223 33.2697C21.4976 33.1944 21.7306 33.0537 21.9221 32.8475C22.2238 32.5206 22.3746 32.0877 22.3746 31.5486L22.3681 31.3083C22.3334 30.8104 22.1652 30.4164 21.8635 30.1263C21.5641 29.8362 21.1767 29.6912 20.7014 29.6912C20.3672 29.6912 20.0732 29.7659 19.8193 29.9152C19.5675 30.0646 19.3744 30.2757 19.2398 30.5485C19.1053 30.8212 19.038 31.1319 19.038 31.4804V31.5227C19.038 32.0812 19.1888 32.5228 19.4905 32.8475C19.6834 33.0537 19.9174 33.1944 20.1925 33.2697H21.223ZM18.3887 33.2697V28.2819H17.4447V30.0744C17.2211 29.8189 16.9379 29.6912 16.5951 29.6912C16.1675 29.6912 15.8301 29.8535 15.5827 30.1783C15.3375 30.503 15.2148 30.9392 15.2148 31.4869C15.2148 32.0671 15.3396 32.5206 15.5892 32.8475C15.749 33.0537 15.9416 33.1944 16.167 33.2697H16.9846C17.1797 33.2005 17.3493 33.076 17.4935 32.8962L17.5391 33.2697H18.3887ZM16.1556 31.5551C16.1556 31.8842 16.2131 32.1364 16.3281 32.3117C16.4431 32.4871 16.6102 32.5748 16.8294 32.5748C17.1202 32.5748 17.3253 32.4525 17.4447 32.2078V30.8212C17.3275 30.5766 17.1246 30.4543 16.8359 30.4543C16.3824 30.4543 16.1556 30.8212 16.1556 31.5551ZM20.1676 32.315C20.0417 32.1375 19.9788 31.882 19.9788 31.5486C19.9788 31.1741 20.0417 30.8981 20.1676 30.7206C20.2934 30.5409 20.4714 30.451 20.7014 30.451C20.9336 30.451 21.1138 30.5409 21.2418 30.7206C21.3698 30.9003 21.4339 31.1535 21.4339 31.4804C21.4339 31.8636 21.3698 32.1429 21.2418 32.3182C21.1138 32.4914 20.9358 32.578 20.7079 32.578C20.4736 32.578 20.2934 32.4903 20.1676 32.315Z" fill="#6177FF"/>
</svg>
